<svg xmlns="http://www.w3.org/2000/svg" xmlns:xlink="http://www.w3.org/1999/xlink" version="1.1" x="0px" y="0px" viewBox="0 0 100 125" style="enable-background:new 0 0 100 100;" xml:space="preserve"><path d="M68.4,47.5c-0.1-0.2-0.2-0.4-0.2-0.7v-0.1c0-0.2,0-0.4,0-0.6c0-3.2-1.8-6-4.6-7.4c-0.9,1.3-2.2,2.1-4,2.5c0,0.5,0,1-0.1,1.5  c-0.2,0.9-0.6,1.8-1.2,2.5l0,0c-0.2,0.2-0.5,0.4-0.8,0.4c-0.6,0-1.1-0.5-1.1-1.1c0-0.3,0.1-0.5,0.3-0.7l0,0c0.4-0.4,0.6-0.9,0.7-1.5  c0.1-0.5,0.1-1.1-0.1-1.6c-0.2-0.5-0.5-1-0.9-1.4s-0.9-0.6-1.5-0.7l0,0c-0.5-0.1-0.9-0.5-0.9-1c0-0.6,0.5-1.1,1.1-1.1  c0.1,0,0.1,0,0.2,0l0,0l0,0l0,0c0.9,0.2,1.8,0.6,2.5,1.2c0.5,0.4,0.9,0.9,1.2,1.5c1.6-0.3,2.6-1,3.2-2.2v-0.1  c0.1-0.4,0.2-0.9,0.2-1.3c0-1.9-1.1-3.7-2.8-4.6l0,0c-0.3-0.1-0.5-0.4-0.6-0.7l0,0c-0.7-1.8-2.4-3-4.3-3c-3,0-3.5,2.9-3.5,4.6v35.6  c0,3.1,2.2,5.1,5.6,5.1c3.5,0,6.4-2.1,6.7-4.7c0,0,0,0,0-0.1c-0.1-2.4-1.3-4.9-4.2-4.9c-1.8,0-3.2,1.4-3.2,3.2  c0,0.6-0.5,1.1-1.1,1.1s-1.1-0.5-1.1-1.1c0-1.7,0.8-3.3,2.1-4.2c-1.3-1-2.1-2.5-2.1-4.2c0-0.6,0.5-1.1,1.1-1.1s1.1,0.5,1.1,1.1  c0,1.8,1.4,3.2,3.2,3.2c3.2,0,5.5,2.1,6.2,5.3c1.1-1,1.8-2.4,1.8-3.9c0-0.6-0.1-1.1-0.3-1.7c-0.1-0.1-0.1-0.3-0.1-0.5  c0-0.4,0.1-0.7,0.4-0.9c1.7-1.8,2.6-4.1,2.6-6.5C69.8,50.7,69.3,49,68.4,47.5L68.4,47.5z M63.8,53.4c0.3,0.9,0.3,1.8,0.1,2.7l0,0  l0,0l0,0c-0.1,0.5-0.5,0.8-1,0.8c-0.6,0-1.1-0.5-1.1-1.1c0-0.1,0-0.2,0-0.3l0,0c0.1-0.5,0.1-1.1,0-1.7c-0.2-0.5-0.4-1-0.8-1.4  c-0.4-0.4-0.9-0.7-1.4-0.8s-1.1-0.1-1.6,0l0,0c-0.1,0-0.2,0-0.3,0c-0.6,0-1.1-0.5-1.1-1.1c0-0.5,0.3-0.9,0.8-1l0,0  c0.9-0.3,1.8-0.3,2.7-0.1c0.6,0.1,1.1,0.4,1.6,0.7c0.9-1.1,1.4-2.4,1.3-3.8l0,0c0,0,0,0,0-0.1c0-0.6,0.5-1.1,1.1-1.1s1,0.4,1.1,1  l0,0c0.1,2-0.6,4-1.9,5.5C63.4,52.3,63.6,52.8,63.8,53.4z"/><path d="M45.1,27.2c-1.9,0-3.6,1.2-4.3,3c-0.1,0.3-0.3,0.6-0.6,0.7l0,0c-1.7,0.9-2.8,2.6-2.8,4.6c0,0.4,0.1,0.9,0.2,1.3v0.1  c0.6,1.2,1.6,1.9,3.2,2.2c0.3-0.6,0.7-1.1,1.2-1.5c0.7-0.6,1.5-1,2.5-1.2l0,0l0,0l0,0c0.1,0,0.1,0,0.2,0c0.6,0,1.1,0.5,1.1,1.1  c0,0.5-0.4,0.9-0.9,1l0,0c-0.6,0.1-1.1,0.4-1.5,0.7c-0.4,0.4-0.7,0.8-0.9,1.4c-0.2,0.5-0.2,1.1-0.1,1.6c0.1,0.5,0.4,1.1,0.7,1.5l0,0  c0.2,0.2,0.3,0.4,0.3,0.7c0,0.6-0.5,1.1-1.1,1.1c-0.3,0-0.6-0.1-0.8-0.4l0,0c-0.6-0.7-1-1.6-1.2-2.5c-0.1-0.5-0.1-1-0.1-1.5  c-1.8-0.4-3.1-1.2-4-2.5c-2.8,1.4-4.6,4.2-4.6,7.4c0,0.2,0,0.4,0,0.6l0,0v0.1c0,0.2-0.1,0.5-0.2,0.7l0,0c-0.9,1.5-1.4,3.2-1.4,5  c0,2.4,0.9,4.8,2.6,6.5c0.2,0.2,0.4,0.6,0.4,0.9c0,0.2,0,0.3-0.1,0.5c-0.2,0.5-0.3,1.1-0.3,1.7c0,1.5,0.7,2.9,1.8,3.9  c0.7-3.2,3-5.3,6.2-5.3c1.8,0,3.2-1.4,3.2-3.2c0-0.6,0.5-1.1,1.1-1.1s1.1,0.5,1.1,1.1c0,1.7-0.8,3.3-2.1,4.2c1.3,1,2.1,2.5,2.1,4.2  c0,0.6-0.5,1.1-1.1,1.1s-1.1-0.5-1.1-1.1c0-1.8-1.4-3.2-3.2-3.2c-3,0-4.1,2.5-4.2,4.9c0,0,0,0,0,0.1c0.3,2.6,3.2,4.7,6.7,4.7  c3.4,0,5.6-2,5.6-5.1V31.7C48.6,30,48.1,27.2,45.1,27.2z M44.5,51.5c-0.2,0-0.3,0-0.5-0.1l0,0c-1.4-0.6-2.9-0.7-4.3-0.1  c0.1,0.6,0.2,1.1,0.2,1.7c-0.1,0.9-0.4,1.8-0.9,2.6c-0.2,0.3-0.5,0.5-0.9,0.5c-0.6,0-1.1-0.5-1.1-1.1c0-0.2,0.1-0.4,0.2-0.6l0,0  c0.3-0.5,0.5-1,0.5-1.6s-0.1-1.1-0.3-1.6s-0.6-0.9-1.1-1.2s-1-0.5-1.6-0.5l0,0c-0.5,0-1-0.5-1-1.1s0.5-1.1,1.1-1.1c0,0,0,0,0.1,0  l0,0c0.9,0.1,1.8,0.4,2.6,0.9c0.5,0.3,0.9,0.7,1.2,1.1c1.9-0.9,4.2-0.8,6.1,0.1l0,0l0,0l0,0c0.4,0.2,0.6,0.5,0.6,1  C45.5,51,45.1,51.5,44.5,51.5z"/><text x="0" y="115" fill="#000000" font-size="5px" font-weight="bold" font-family="'Helvetica Neue', Helvetica, Arial-Unicode, Arial, Sans-serif">Created by Yeasir Ahmed</text><text x="0" y="120" fill="#000000" font-size="5px" font-weight="bold" font-family="'Helvetica Neue', Helvetica, Arial-Unicode, Arial, Sans-serif">from the Noun Project</text></svg>